<svg width="43" height="44" viewBox="0 0 43 44" fill="none" xmlns="http://www.w3.org/2000/svg">
<path d="M1.79175 7.6665V18.4165H12.5417" stroke="white" stroke-width="3" stroke-linecap="round" stroke-linejoin="round"/>
<path d="M41.2083 36.3335V25.5835H30.4583" stroke="white" stroke-width="3" stroke-linecap="round" stroke-linejoin="round"/>
<path d="M36.7113 16.6252C35.8027 14.0573 34.2583 11.7615 32.2224 9.95195C30.1864 8.14239 27.7253 6.87807 25.0686 6.27695C22.4118 5.67583 19.6461 5.75752 17.0295 6.51438C14.4129 7.27123 12.0307 8.6786 10.1051 10.6052L1.79175 18.4168M41.2084 25.5835L32.8951 33.3952C30.9695 35.3217 28.5872 36.7291 25.9706 37.4859C23.354 38.2428 20.5883 38.3245 17.9316 37.7234C15.2749 37.1222 12.8137 35.8579 10.7778 34.0484C8.74186 32.2388 7.19751 29.943 6.28883 27.3752" stroke="white" stroke-width="3" stroke-linecap="round" stroke-linejoin="round"/>
</svg>
