<svg width="52" height="52" viewBox="0 0 52 52" fill="none" xmlns="http://www.w3.org/2000/svg">
<path d="M6.5 26H26V29.25H6.5V26ZM3.25 17.875H19.5V21.125H3.25V17.875Z" fill="white"/>
<path d="M48.6183 26.9848L43.7433 15.6097C43.6182 15.3174 43.41 15.0682 43.1445 14.8931C42.879 14.7181 42.568 14.6248 42.25 14.625H37.3749V11.375C37.3749 10.944 37.2037 10.5307 36.899 10.226C36.5943 9.92121 36.1809 9.75 35.7499 9.75H9.74993V13H34.1249V33.4035C33.3845 33.8335 32.7365 34.4058 32.2183 35.0874C31.7001 35.769 31.3219 36.5465 31.1057 37.375H20.8942C20.4987 35.8432 19.5581 34.5082 18.2487 33.6203C16.9393 32.7324 15.351 32.3525 13.7816 32.5518C12.2121 32.7512 10.7692 33.5161 9.72341 34.7031C8.67758 35.8902 8.10059 37.4179 8.10059 39C8.10059 40.5821 8.67758 42.1098 9.72341 43.2969C10.7692 44.4839 12.2121 45.2488 13.7816 45.4482C15.351 45.6475 16.9393 45.2676 18.2487 44.3797C19.5581 43.4918 20.4987 42.1568 20.8942 40.625H31.1057C31.4592 42.0196 32.2676 43.2566 33.4031 44.1402C34.5385 45.0237 35.9362 45.5035 37.3749 45.5035C38.8137 45.5035 40.2113 45.0237 41.3468 44.1402C42.4823 43.2566 43.2907 42.0196 43.6442 40.625H47.125C47.5559 40.625 47.9693 40.4538 48.274 40.149C48.5788 39.8443 48.75 39.431 48.75 39V27.625C48.75 27.4049 48.7052 27.187 48.6183 26.9848ZM14.6249 42.25C13.9821 42.25 13.3538 42.0594 12.8193 41.7023C12.2849 41.3452 11.8683 40.8376 11.6223 40.2437C11.3763 39.6499 11.312 38.9964 11.4374 38.366C11.5628 37.7355 11.8723 37.1564 12.3268 36.7019C12.7814 36.2474 13.3605 35.9378 13.9909 35.8124C14.6213 35.687 15.2748 35.7514 15.8687 35.9974C16.4625 36.2434 16.9701 36.6599 17.3272 37.1944C17.6843 37.7289 17.8749 38.3572 17.8749 39C17.8741 39.8617 17.5314 40.6878 16.9221 41.2971C16.3128 41.9065 15.4866 42.2491 14.6249 42.25ZM37.3749 17.875H41.1774L44.6614 26H37.3749V17.875ZM37.3749 42.25C36.7322 42.25 36.1038 42.0594 35.5693 41.7023C35.0349 41.3452 34.6183 40.8376 34.3723 40.2437C34.1264 39.6499 34.062 38.9964 34.1874 38.366C34.3128 37.7355 34.6223 37.1564 35.0768 36.7019C35.5314 36.2474 36.1105 35.9378 36.7409 35.8124C37.3713 35.687 38.0248 35.7514 38.6187 35.9974C39.2125 36.2434 39.7201 36.6599 40.0772 37.1944C40.4343 37.7289 40.625 38.3572 40.625 39C40.6241 39.8617 40.2814 40.6878 39.6721 41.2971C39.0628 41.9065 38.2366 42.2491 37.3749 42.25ZM45.5 37.375H43.6442C43.2862 35.9831 42.4765 34.7493 41.342 33.867C40.2074 32.9848 38.8122 32.504 37.3749 32.5V29.25H45.5V37.375Z" fill="white"/>
</svg>
