<svg width="45" height="46" viewBox="0 0 45 46" fill="none" xmlns="http://www.w3.org/2000/svg">
<g clip-path="url(#clip0_102_2296)">
<path d="M6.3945 9.19625V25.9227C6.3945 35.0285 13.6058 42.4085 22.5 42.4085C31.3943 42.4085 38.6055 35.0285 38.6055 25.9227V9.20525L22.4033 3.7535L6.3945 9.19625ZM22.3988 0.5L41.625 6.9665V25.9227C41.625 36.734 33.0615 45.5 22.5 45.5C11.9385 45.5 3.375 36.734 3.375 25.9227V6.9665L22.3988 0.5ZM32.3415 15.0913C32.1946 14.9563 32.0221 14.8524 31.8342 14.7856C31.6463 14.7188 31.4468 14.6906 31.2478 14.7025C31.0487 14.7145 30.8541 14.7665 30.6755 14.8553C30.497 14.9441 30.3382 15.068 30.2085 15.2195L20.4975 26.3997L14.2245 19.4585C14.0919 19.3099 13.9307 19.1895 13.7506 19.1045C13.5705 19.0195 13.3751 18.9715 13.1761 18.9636C12.9771 18.9556 12.7785 18.9877 12.5922 19.0581C12.4059 19.1284 12.2356 19.2355 12.0915 19.373C11.7965 19.655 11.6228 20.0407 11.6073 20.4485C11.5917 20.8563 11.7356 21.2541 12.0083 21.5578L19.4108 29.7477C19.5517 29.9063 19.7251 30.0327 19.919 30.1186C20.113 30.2045 20.3231 30.2479 20.5352 30.2457C20.7474 30.2436 20.9566 30.196 21.1488 30.1063C21.341 30.0165 21.5117 29.8866 21.6495 29.7253L32.4653 17.2738C32.7322 16.9652 32.8685 16.5648 32.8454 16.1574C32.8223 15.7501 32.6416 15.3677 32.3415 15.0913Z" fill="white"/>
</g>
<defs>
<clipPath id="clip0_102_2296">
<rect width="45" height="45" fill="white" transform="translate(0 0.5)"/>
</clipPath>
</defs>
</svg>
