<svg width="327" height="37" viewBox="0 0 327 37" fill="none" xmlns="http://www.w3.org/2000/svg">
<path d="M21.7053 2.3125C21.9501 2.31251 22.1886 2.39021 22.3864 2.53441C22.5842 2.67862 22.7312 2.88188 22.8061 3.11494L24.078 7.067C24.6122 7.32831 25.1232 7.622 25.6112 7.95269L29.6719 7.07856C29.9113 7.02744 30.1608 7.05364 30.3844 7.15338C30.608 7.25312 30.7941 7.42125 30.916 7.63356L34.1212 13.1812C34.2435 13.3934 34.2954 13.639 34.2692 13.8826C34.243 14.1261 34.1402 14.3551 33.9755 14.5364L31.1889 17.612C31.2295 18.2018 31.2295 18.7936 31.1889 19.3834L33.9755 22.4636C34.1402 22.6449 34.243 22.8739 34.2692 23.1174C34.2954 23.361 34.2435 23.6066 34.1212 23.8188L30.916 29.3687C30.7938 29.5806 30.6075 29.7483 30.3839 29.8476C30.1604 29.9469 29.9111 29.9728 29.6719 29.9214L25.6112 29.0473C25.1255 29.3757 24.6122 29.6717 24.0803 29.933L22.8061 33.8851C22.7312 34.1181 22.5842 34.3214 22.3864 34.4656C22.1886 34.6098 21.9501 34.6875 21.7053 34.6875H15.2951C15.0503 34.6875 14.8118 34.6098 14.614 34.4656C14.4162 34.3214 14.2692 34.1181 14.1943 33.8851L12.9248 29.9353C12.392 29.6748 11.8782 29.3773 11.387 29.045L7.32853 29.9214C7.08911 29.9726 6.83964 29.9464 6.61605 29.8466C6.39247 29.7469 6.20632 29.5787 6.08441 29.3664L2.87928 23.8188C2.75689 23.6066 2.70505 23.361 2.73124 23.1174C2.75742 22.8739 2.86027 22.6449 3.02497 22.4636L5.81153 19.3834C5.77117 18.7952 5.77117 18.2049 5.81153 17.6166L3.02497 14.5364C2.86027 14.3551 2.75742 14.1261 2.73124 13.8826C2.70505 13.639 2.75689 13.3934 2.87928 13.1812L6.08441 7.63125C6.20665 7.41936 6.39295 7.25171 6.61651 7.1524C6.84006 7.05309 7.08935 7.02724 7.32853 7.07856L11.387 7.955C11.8772 7.62431 12.3906 7.326 12.9248 7.06469L14.1967 3.11494C14.2713 2.88263 14.4176 2.67991 14.6144 2.53577C14.8113 2.39164 15.0488 2.31348 15.2928 2.3125H21.703H21.7053ZM20.859 4.625H16.1415L14.828 8.71119L13.9423 9.14362C13.5069 9.35669 13.0866 9.5993 12.6843 9.86975L11.8657 10.4247L7.66616 9.51825L5.30741 13.6067L8.18647 16.7934L8.11709 17.7739C8.08387 18.2574 8.08387 18.7426 8.11709 19.2261L8.18647 20.2066L5.30278 23.3932L7.66384 27.4818L11.8633 26.5776L12.682 27.1303C13.0843 27.4007 13.5046 27.6433 13.94 27.8564L14.8257 28.2888L16.1415 32.375H20.8636L22.1817 28.2865L23.0651 27.8564C23.5 27.6438 23.9196 27.4012 24.3208 27.1303L25.1371 26.5776L29.3389 27.4818L31.6977 23.3932L28.8163 20.2066L28.8857 19.2261C28.919 18.7418 28.919 18.2558 28.8857 17.7716L28.8163 16.7911L31.7 13.6067L29.3389 9.51825L25.1371 10.4201L24.3208 9.86975C23.9196 9.59876 23.5001 9.35612 23.0651 9.14362L22.1817 8.7135L20.8613 4.625H20.859ZM18.5002 11.5625C20.3402 11.5625 22.1047 12.2934 23.4058 13.5944C24.7068 14.8955 25.4377 16.6601 25.4377 18.5C25.4377 20.3399 24.7068 22.1045 23.4058 23.4056C22.1047 24.7066 20.3402 25.4375 18.5002 25.4375C16.6603 25.4375 14.8957 24.7066 13.5947 23.4056C12.2936 22.1045 11.5627 20.3399 11.5627 18.5C11.5627 16.6601 12.2936 14.8955 13.5947 13.5944C14.8957 12.2934 16.6603 11.5625 18.5002 11.5625ZM18.5002 13.875C17.2736 13.875 16.0972 14.3623 15.2298 15.2296C14.3625 16.097 13.8752 17.2734 13.8752 18.5C13.8752 19.7266 14.3625 20.903 15.2298 21.7704C16.0972 22.6377 17.2736 23.125 18.5002 23.125C19.7268 23.125 20.9032 22.6377 21.7706 21.7704C22.6379 20.903 23.1252 19.7266 23.1252 18.5C23.1252 17.2734 22.6379 16.097 21.7706 15.2296C20.9032 14.3623 19.7268 13.875 18.5002 13.875Z" fill="#315E93"/>
<path d="M49.256 27V13.968H44.096V10.2H59.144V13.968H54.008V27H49.256ZM65.2824 16.704H73.0824V20.256H65.2824V16.704ZM65.6184 23.328H74.4024V27H60.9144V10.2H74.0904V13.872H65.6184V23.328ZM85.4154 27.336C84.0874 27.336 82.8554 27.128 81.7194 26.712C80.5994 26.28 79.6234 25.672 78.7914 24.888C77.9754 24.104 77.3354 23.184 76.8714 22.128C76.4074 21.056 76.1754 19.88 76.1754 18.6C76.1754 17.32 76.4074 16.152 76.8714 15.096C77.3354 14.024 77.9754 13.096 78.7914 12.312C79.6234 11.528 80.5994 10.928 81.7194 10.512C82.8554 10.08 84.0874 9.864 85.4154 9.864C86.9674 9.864 88.3514 10.136 89.5674 10.68C90.7994 11.224 91.8234 12.008 92.6394 13.032L89.6154 15.768C89.0714 15.128 88.4714 14.64 87.8154 14.304C87.1754 13.968 86.4554 13.8 85.6554 13.8C84.9674 13.8 84.3354 13.912 83.7594 14.136C83.1834 14.36 82.6874 14.688 82.2714 15.12C81.8714 15.536 81.5514 16.04 81.3114 16.632C81.0874 17.224 80.9754 17.88 80.9754 18.6C80.9754 19.32 81.0874 19.976 81.3114 20.568C81.5514 21.16 81.8714 21.672 82.2714 22.104C82.6874 22.52 83.1834 22.84 83.7594 23.064C84.3354 23.288 84.9674 23.4 85.6554 23.4C86.4554 23.4 87.1754 23.232 87.8154 22.896C88.4714 22.56 89.0714 22.072 89.6154 21.432L92.6394 24.168C91.8234 25.176 90.7994 25.96 89.5674 26.52C88.3514 27.064 86.9674 27.336 85.4154 27.336ZM105.99 10.2H110.742V27H105.99V10.2ZM99.5101 27H94.7581V10.2H99.5101V27ZM106.326 20.448H99.1741V16.512H106.326V20.448ZM114.094 27V10.2H118.006L127.27 21.384H125.422V10.2H130.078V27H126.166L116.902 15.816H118.75V27H114.094ZM141.902 27.336C140.558 27.336 139.318 27.12 138.182 26.688C137.046 26.256 136.054 25.648 135.206 24.864C134.374 24.064 133.726 23.136 133.262 22.08C132.798 21.024 132.566 19.864 132.566 18.6C132.566 17.336 132.798 16.176 133.262 15.12C133.726 14.064 134.374 13.144 135.206 12.36C136.054 11.56 137.046 10.944 138.182 10.512C139.318 10.08 140.558 9.864 141.902 9.864C143.262 9.864 144.502 10.08 145.622 10.512C146.758 10.944 147.742 11.56 148.574 12.36C149.406 13.144 150.054 14.064 150.518 15.12C150.998 16.176 151.238 17.336 151.238 18.6C151.238 19.864 150.998 21.032 150.518 22.104C150.054 23.16 149.406 24.08 148.574 24.864C147.742 25.648 146.758 26.256 145.622 26.688C144.502 27.12 143.262 27.336 141.902 27.336ZM141.902 23.4C142.542 23.4 143.134 23.288 143.678 23.064C144.238 22.84 144.718 22.52 145.118 22.104C145.534 21.672 145.854 21.16 146.078 20.568C146.318 19.976 146.438 19.32 146.438 18.6C146.438 17.864 146.318 17.208 146.078 16.632C145.854 16.04 145.534 15.536 145.118 15.12C144.718 14.688 144.238 14.36 143.678 14.136C143.134 13.912 142.542 13.8 141.902 13.8C141.262 13.8 140.662 13.912 140.102 14.136C139.558 14.36 139.078 14.688 138.662 15.12C138.262 15.536 137.942 16.04 137.702 16.632C137.478 17.208 137.366 17.864 137.366 18.6C137.366 19.32 137.478 19.976 137.702 20.568C137.942 21.16 138.262 21.672 138.662 22.104C139.078 22.52 139.558 22.84 140.102 23.064C140.662 23.288 141.262 23.4 141.902 23.4ZM153.246 21.912V18.408H160.254V21.912H153.246ZM171.501 27.336C170.173 27.336 168.941 27.128 167.805 26.712C166.685 26.28 165.709 25.672 164.877 24.888C164.061 24.104 163.421 23.184 162.957 22.128C162.493 21.056 162.261 19.88 162.261 18.6C162.261 17.32 162.493 16.152 162.957 15.096C163.421 14.024 164.061 13.096 164.877 12.312C165.709 11.528 166.685 10.928 167.805 10.512C168.941 10.08 170.173 9.864 171.501 9.864C173.053 9.864 174.437 10.136 175.653 10.68C176.885 11.224 177.909 12.008 178.725 13.032L175.701 15.768C175.157 15.128 174.557 14.64 173.901 14.304C173.261 13.968 172.541 13.8 171.741 13.8C171.053 13.8 170.421 13.912 169.845 14.136C169.269 14.36 168.773 14.688 168.357 15.12C167.957 15.536 167.637 16.04 167.397 16.632C167.173 17.224 167.061 17.88 167.061 18.6C167.061 19.32 167.173 19.976 167.397 20.568C167.637 21.16 167.957 21.672 168.357 22.104C168.773 22.52 169.269 22.84 169.845 23.064C170.421 23.288 171.053 23.4 171.741 23.4C172.541 23.4 173.261 23.232 173.901 22.896C174.557 22.56 175.157 22.072 175.701 21.432L178.725 24.168C177.909 25.176 176.885 25.96 175.653 26.52C174.437 27.064 173.053 27.336 171.501 27.336ZM178.547 27L185.963 10.2H190.643L198.083 27H193.139L187.331 12.528H189.203L183.395 27H178.547ZM182.603 23.736L183.827 20.232H192.035L193.259 23.736H182.603ZM199.43 27V10.2H207.11C208.646 10.2 209.966 10.448 211.07 10.944C212.19 11.44 213.054 12.16 213.662 13.104C214.27 14.032 214.574 15.136 214.574 16.416C214.574 17.68 214.27 18.776 213.662 19.704C213.054 20.616 212.19 21.32 211.07 21.816C209.966 22.296 208.646 22.536 207.11 22.536H202.07L204.182 20.544V27H199.43ZM209.822 27L205.646 20.88H210.71L214.91 27H209.822ZM204.182 21.048L202.07 18.864H206.822C207.814 18.864 208.55 18.648 209.03 18.216C209.526 17.784 209.774 17.184 209.774 16.416C209.774 15.632 209.526 15.024 209.03 14.592C208.55 14.16 207.814 13.944 206.822 13.944H202.07L204.182 11.76V21.048ZM218.9 27.216C218.132 27.216 217.484 26.96 216.956 26.448C216.428 25.936 216.164 25.288 216.164 24.504C216.164 23.688 216.428 23.04 216.956 22.56C217.484 22.064 218.132 21.816 218.9 21.816C219.668 21.816 220.316 22.064 220.844 22.56C221.372 23.04 221.636 23.688 221.636 24.504C221.636 25.288 221.372 25.936 220.844 26.448C220.316 26.96 219.668 27.216 218.9 27.216ZM231.9 27.336C230.572 27.336 229.34 27.128 228.204 26.712C227.084 26.28 226.108 25.672 225.276 24.888C224.46 24.104 223.82 23.184 223.356 22.128C222.892 21.056 222.66 19.88 222.66 18.6C222.66 17.32 222.892 16.152 223.356 15.096C223.82 14.024 224.46 13.096 225.276 12.312C226.108 11.528 227.084 10.928 228.204 10.512C229.34 10.08 230.572 9.864 231.9 9.864C233.452 9.864 234.836 10.136 236.052 10.68C237.284 11.224 238.308 12.008 239.124 13.032L236.1 15.768C235.556 15.128 234.956 14.64 234.3 14.304C233.66 13.968 232.94 13.8 232.14 13.8C231.452 13.8 230.82 13.912 230.244 14.136C229.668 14.36 229.172 14.688 228.756 15.12C228.356 15.536 228.036 16.04 227.796 16.632C227.572 17.224 227.46 17.88 227.46 18.6C227.46 19.32 227.572 19.976 227.796 20.568C228.036 21.16 228.356 21.672 228.756 22.104C229.172 22.52 229.668 22.84 230.244 23.064C230.82 23.288 231.452 23.4 232.14 23.4C232.94 23.4 233.66 23.232 234.3 22.896C234.956 22.56 235.556 22.072 236.1 21.432L239.124 24.168C238.308 25.176 237.284 25.96 236.052 26.52C234.836 27.064 233.452 27.336 231.9 27.336ZM249.363 27.336C248.019 27.336 246.779 27.12 245.643 26.688C244.507 26.256 243.515 25.648 242.667 24.864C241.835 24.064 241.187 23.136 240.723 22.08C240.259 21.024 240.027 19.864 240.027 18.6C240.027 17.336 240.259 16.176 240.723 15.12C241.187 14.064 241.835 13.144 242.667 12.36C243.515 11.56 244.507 10.944 245.643 10.512C246.779 10.08 248.019 9.864 249.363 9.864C250.723 9.864 251.963 10.08 253.083 10.512C254.219 10.944 255.203 11.56 256.035 12.36C256.867 13.144 257.515 14.064 257.979 15.12C258.459 16.176 258.699 17.336 258.699 18.6C258.699 19.864 258.459 21.032 257.979 22.104C257.515 23.16 256.867 24.08 256.035 24.864C255.203 25.648 254.219 26.256 253.083 26.688C251.963 27.12 250.723 27.336 249.363 27.336ZM249.363 23.4C250.003 23.4 250.595 23.288 251.139 23.064C251.699 22.84 252.179 22.52 252.579 22.104C252.995 21.672 253.315 21.16 253.539 20.568C253.779 19.976 253.899 19.32 253.899 18.6C253.899 17.864 253.779 17.208 253.539 16.632C253.315 16.04 252.995 15.536 252.579 15.12C252.179 14.688 251.699 14.36 251.139 14.136C250.595 13.912 250.003 13.8 249.363 13.8C248.723 13.8 248.123 13.912 247.563 14.136C247.019 14.36 246.539 14.688 246.123 15.12C245.723 15.536 245.403 16.04 245.163 16.632C244.939 17.208 244.827 17.864 244.827 18.6C244.827 19.32 244.939 19.976 245.163 20.568C245.403 21.16 245.723 21.672 246.123 22.104C246.539 22.52 247.019 22.84 247.563 23.064C248.123 23.288 248.723 23.4 249.363 23.4ZM261.188 27V10.2H265.1L272.06 21.624H269.996L276.764 10.2H280.676L280.724 27H276.356L276.308 16.848H277.052L271.988 25.344H269.876L264.668 16.848H265.58V27H261.188ZM285.79 27.216C285.022 27.216 284.374 26.96 283.846 26.448C283.318 25.936 283.054 25.288 283.054 24.504C283.054 23.688 283.318 23.04 283.846 22.56C284.374 22.064 285.022 21.816 285.79 21.816C286.558 21.816 287.206 22.064 287.734 22.56C288.262 23.04 288.526 23.688 288.526 24.504C288.526 25.288 288.262 25.936 287.734 26.448C287.206 26.96 286.558 27.216 285.79 27.216ZM298.495 27.336C296.015 27.336 294.079 26.656 292.687 25.296C291.295 23.936 290.599 22.008 290.599 19.512V10.2H295.351V19.368C295.351 20.808 295.631 21.84 296.191 22.464C296.767 23.088 297.551 23.4 298.543 23.4C299.535 23.4 300.311 23.088 300.871 22.464C301.431 21.84 301.711 20.808 301.711 19.368V10.2H306.391V19.512C306.391 22.008 305.695 23.936 304.303 25.296C302.911 26.656 300.975 27.336 298.495 27.336ZM307.242 27L314.658 10.2H319.338L326.778 27H321.834L316.026 12.528H317.898L312.09 27H307.242ZM311.298 23.736L312.522 20.232H320.73L321.954 23.736H311.298Z" fill="#315E93"/>
</svg>
