<svg width="52" height="52" fill="none" xmlns="http://www.w3.org/2000/svg"><path d="M6.5 26H26v3.25H6.5V26Zm-3.25-8.125H19.5v3.25H3.25v-3.25Z" fill="#fff"/><path d="M48.618 26.985 43.743 15.61a1.624 1.624 0 0 0-1.493-.985h-4.875v-3.25A1.625 1.625 0 0 0 35.75 9.75h-26V13h24.375v20.404a6.489 6.489 0 0 0-3.02 3.971h-10.21a6.5 6.5 0 1 0 0 3.25h10.21a6.468 6.468 0 0 0 12.54 0h3.48A1.625 1.625 0 0 0 48.75 39V27.625c0-.22-.045-.438-.132-.64ZM14.625 42.25a3.25 3.25 0 1 1 0-6.5 3.25 3.25 0 0 1 0 6.5Zm22.75-24.375h3.802L44.661 26h-7.286v-8.125Zm0 24.375a3.25 3.25 0 1 1 0-6.5 3.25 3.25 0 0 1 0 6.5Zm8.125-4.875h-1.856a6.493 6.493 0 0 0-6.27-4.875v-3.25H45.5v8.125Z" fill="#fff"/></svg>