<svg width="45" height="46" fill="none" xmlns="http://www.w3.org/2000/svg"><g clip-path="url(#a)"><path d="M6.394 9.196v16.727c0 9.106 7.212 16.485 16.106 16.485 8.894 0 16.105-7.38 16.105-16.485V9.205L22.403 3.753 6.395 9.197ZM22.4.5l19.226 6.466v18.957c0 10.811-8.563 19.577-19.125 19.577S3.375 36.734 3.375 25.923V6.967L22.399.5Zm9.943 14.591a1.484 1.484 0 0 0-2.133.129L20.497 26.4l-6.272-6.941a1.484 1.484 0 0 0-2.133-.086 1.57 1.57 0 0 0-.084 2.185l7.403 8.19a1.483 1.483 0 0 0 2.238-.023l10.816-12.451a1.57 1.57 0 0 0-.123-2.183Z" fill="#fff"/></g><defs><clipPath id="a"><path fill="#fff" transform="translate(0 .5)" d="M0 0h45v45H0z"/></clipPath></defs></svg>