<svg width="327" height="37" fill="none" xmlns="http://www.w3.org/2000/svg"><path d="M21.705 2.313a1.156 1.156 0 0 1 1.101.802l1.272 3.952c.534.261 1.045.555 1.533.886l4.06-.874a1.156 1.156 0 0 1 1.245.555l3.205 5.547a1.157 1.157 0 0 1-.146 1.355l-2.786 3.076c.04.59.04 1.182 0 1.771l2.786 3.08a1.156 1.156 0 0 1 .146 1.356l-3.205 5.55a1.156 1.156 0 0 1-1.244.552l-4.06-.874c-.486.329-1 .625-1.532.886l-1.274 3.952a1.157 1.157 0 0 1-1.1.803h-6.41a1.156 1.156 0 0 1-1.102-.803l-1.27-3.95a12.7 12.7 0 0 1-1.537-.89l-4.058.876a1.155 1.155 0 0 1-1.245-.555L2.88 23.82a1.156 1.156 0 0 1 .146-1.355l2.787-3.08c-.04-.589-.04-1.18 0-1.767l-2.787-3.08a1.156 1.156 0 0 1-.146-1.356l3.205-5.55A1.156 1.156 0 0 1 7.33 7.08l4.058.876c.49-.33 1.004-.629 1.538-.89l1.272-3.95a1.156 1.156 0 0 1 1.096-.803h6.412Zm-.846 2.312h-4.718l-1.313 4.086-.886.433a10.63 10.63 0 0 0-1.258.726l-.818.555-4.2-.907-2.359 4.089 2.88 3.186-.07.98c-.033.484-.033.97 0 1.453l.07.98-2.884 3.187 2.36 4.089 4.2-.904.819.552c.402.27.823.513 1.258.726l.886.433 1.316 4.086h4.722l1.318-4.088.883-.43c.435-.213.855-.456 1.256-.727l.816-.552 4.202.904 2.359-4.089-2.882-3.186.07-.98a10.6 10.6 0 0 0 0-1.455l-.07-.98 2.884-3.185-2.361-4.089-4.202.902-.816-.55a10.24 10.24 0 0 0-1.256-.726l-.883-.43-1.32-4.089h-.003ZM18.5 11.563a6.938 6.938 0 1 1 0 13.875 6.938 6.938 0 0 1 0-13.875Zm0 2.312a4.625 4.625 0 1 0 0 9.25 4.625 4.625 0 0 0 0-9.25ZM49.256 27V13.968h-5.16V10.2h15.048v3.768h-5.136V27h-4.752Zm16.026-10.296h7.8v3.552h-7.8v-3.552Zm.336 6.624h8.784V27H60.914V10.2H74.09v3.672h-8.472v9.456Zm19.797 4.008c-1.328 0-2.56-.208-3.696-.624a8.878 8.878 0 0 1-2.928-1.824 8.564 8.564 0 0 1-1.92-2.76c-.464-1.072-.696-2.248-.696-3.528 0-1.28.232-2.448.696-3.504a8.495 8.495 0 0 1 1.92-2.784 8.566 8.566 0 0 1 2.928-1.8c1.136-.432 2.368-.648 3.696-.648 1.552 0 2.936.272 4.152.816a7.988 7.988 0 0 1 3.072 2.352l-3.024 2.736c-.544-.64-1.144-1.128-1.8-1.464-.64-.336-1.36-.504-2.16-.504-.688 0-1.32.112-1.896.336a4.102 4.102 0 0 0-1.488.984 4.7 4.7 0 0 0-.96 1.512 5.522 5.522 0 0 0-.336 1.968c0 .72.112 1.376.336 1.968a5 5 0 0 0 .96 1.536 4.26 4.26 0 0 0 1.488.96 5.188 5.188 0 0 0 1.896.336c.8 0 1.52-.168 2.16-.504.656-.336 1.256-.824 1.8-1.464l3.024 2.736a8.312 8.312 0 0 1-3.072 2.352c-1.216.544-2.6.816-4.152.816ZM105.99 10.2h4.752V27h-4.752V10.2ZM99.51 27h-4.752V10.2h4.752V27Zm6.816-6.552h-7.152v-3.936h7.152v3.936ZM114.094 27V10.2h3.912l9.264 11.184h-1.848V10.2h4.656V27h-3.912l-9.264-11.184h1.848V27h-4.656Zm27.808.336c-1.344 0-2.584-.216-3.72-.648a9.096 9.096 0 0 1-2.976-1.824 8.657 8.657 0 0 1-1.944-2.784c-.464-1.056-.696-2.216-.696-3.48 0-1.264.232-2.424.696-3.48a8.39 8.39 0 0 1 1.944-2.76 8.891 8.891 0 0 1 2.976-1.848c1.136-.432 2.376-.648 3.72-.648 1.36 0 2.6.216 3.72.648a8.63 8.63 0 0 1 2.952 1.848 8.39 8.39 0 0 1 1.944 2.76c.48 1.056.72 2.216.72 3.48 0 1.264-.24 2.432-.72 3.504a8.39 8.39 0 0 1-1.944 2.76 8.824 8.824 0 0 1-2.952 1.824c-1.12.432-2.36.648-3.72.648Zm0-3.936a4.62 4.62 0 0 0 1.776-.336 4.064 4.064 0 0 0 1.44-.96c.416-.432.736-.944.96-1.536.24-.592.36-1.248.36-1.968 0-.736-.12-1.392-.36-1.968a4.216 4.216 0 0 0-.96-1.512c-.4-.432-.88-.76-1.44-.984a4.62 4.62 0 0 0-1.776-.336c-.64 0-1.24.112-1.8.336a4.202 4.202 0 0 0-1.44.984 4.7 4.7 0 0 0-.96 1.512c-.224.576-.336 1.232-.336 1.968 0 .72.112 1.376.336 1.968a5 5 0 0 0 .96 1.536 4.37 4.37 0 0 0 1.44.96c.56.224 1.16.336 1.8.336Zm11.344-1.488v-3.504h7.008v3.504h-7.008Zm18.255 5.424c-1.328 0-2.56-.208-3.696-.624a8.878 8.878 0 0 1-2.928-1.824 8.564 8.564 0 0 1-1.92-2.76c-.464-1.072-.696-2.248-.696-3.528 0-1.28.232-2.448.696-3.504a8.495 8.495 0 0 1 1.92-2.784 8.566 8.566 0 0 1 2.928-1.8c1.136-.432 2.368-.648 3.696-.648 1.552 0 2.936.272 4.152.816a7.988 7.988 0 0 1 3.072 2.352l-3.024 2.736c-.544-.64-1.144-1.128-1.8-1.464-.64-.336-1.36-.504-2.16-.504-.688 0-1.32.112-1.896.336a4.102 4.102 0 0 0-1.488.984 4.7 4.7 0 0 0-.96 1.512 5.522 5.522 0 0 0-.336 1.968c0 .72.112 1.376.336 1.968a5 5 0 0 0 .96 1.536 4.26 4.26 0 0 0 1.488.96 5.188 5.188 0 0 0 1.896.336c.8 0 1.52-.168 2.16-.504.656-.336 1.256-.824 1.8-1.464l3.024 2.736a8.312 8.312 0 0 1-3.072 2.352c-1.216.544-2.6.816-4.152.816Zm7.046-.336 7.416-16.8h4.68l7.44 16.8h-4.944l-5.808-14.472h1.872L183.395 27h-4.848Zm4.056-3.264 1.224-3.504h8.208l1.224 3.504h-10.656ZM199.43 27V10.2h7.68c1.536 0 2.856.248 3.96.744 1.12.496 1.984 1.216 2.592 2.16.608.928.912 2.032.912 3.312 0 1.264-.304 2.36-.912 3.288-.608.912-1.472 1.616-2.592 2.112-1.104.48-2.424.72-3.96.72h-5.04l2.112-1.992V27h-4.752Zm10.392 0-4.176-6.12h5.064l4.2 6.12h-5.088Zm-5.64-5.952-2.112-2.184h4.752c.992 0 1.728-.216 2.208-.648.496-.432.744-1.032.744-1.8 0-.784-.248-1.392-.744-1.824-.48-.432-1.216-.648-2.208-.648h-4.752l2.112-2.184v9.288Zm14.718 6.168c-.768 0-1.416-.256-1.944-.768s-.792-1.16-.792-1.944c0-.816.264-1.464.792-1.944.528-.496 1.176-.744 1.944-.744s1.416.248 1.944.744c.528.48.792 1.128.792 1.944 0 .784-.264 1.432-.792 1.944s-1.176.768-1.944.768Zm13 .12c-1.328 0-2.56-.208-3.696-.624a8.878 8.878 0 0 1-2.928-1.824 8.564 8.564 0 0 1-1.92-2.76c-.464-1.072-.696-2.248-.696-3.528 0-1.28.232-2.448.696-3.504a8.495 8.495 0 0 1 1.92-2.784 8.566 8.566 0 0 1 2.928-1.8c1.136-.432 2.368-.648 3.696-.648 1.552 0 2.936.272 4.152.816a7.988 7.988 0 0 1 3.072 2.352l-3.024 2.736c-.544-.64-1.144-1.128-1.8-1.464-.64-.336-1.36-.504-2.16-.504-.688 0-1.32.112-1.896.336a4.102 4.102 0 0 0-1.488.984 4.7 4.7 0 0 0-.96 1.512 5.522 5.522 0 0 0-.336 1.968c0 .72.112 1.376.336 1.968a5 5 0 0 0 .96 1.536 4.26 4.26 0 0 0 1.488.96 5.188 5.188 0 0 0 1.896.336c.8 0 1.52-.168 2.16-.504.656-.336 1.256-.824 1.8-1.464l3.024 2.736a8.312 8.312 0 0 1-3.072 2.352c-1.216.544-2.6.816-4.152.816Zm17.463 0c-1.344 0-2.584-.216-3.72-.648a9.096 9.096 0 0 1-2.976-1.824 8.657 8.657 0 0 1-1.944-2.784c-.464-1.056-.696-2.216-.696-3.48 0-1.264.232-2.424.696-3.48a8.39 8.39 0 0 1 1.944-2.76 8.891 8.891 0 0 1 2.976-1.848c1.136-.432 2.376-.648 3.72-.648 1.36 0 2.6.216 3.72.648a8.63 8.63 0 0 1 2.952 1.848 8.39 8.39 0 0 1 1.944 2.76c.48 1.056.72 2.216.72 3.48 0 1.264-.24 2.432-.72 3.504a8.39 8.39 0 0 1-1.944 2.76 8.824 8.824 0 0 1-2.952 1.824c-1.12.432-2.36.648-3.72.648Zm0-3.936a4.62 4.62 0 0 0 1.776-.336 4.064 4.064 0 0 0 1.44-.96c.416-.432.736-.944.96-1.536.24-.592.36-1.248.36-1.968 0-.736-.12-1.392-.36-1.968a4.216 4.216 0 0 0-.96-1.512c-.4-.432-.88-.76-1.44-.984a4.62 4.62 0 0 0-1.776-.336c-.64 0-1.24.112-1.8.336a4.202 4.202 0 0 0-1.44.984 4.7 4.7 0 0 0-.96 1.512c-.224.576-.336 1.232-.336 1.968 0 .72.112 1.376.336 1.968a5 5 0 0 0 .96 1.536 4.37 4.37 0 0 0 1.44.96c.56.224 1.16.336 1.8.336Zm11.825 3.6V10.2h3.912l6.96 11.424h-2.064l6.768-11.424h3.912l.048 16.8h-4.368l-.048-10.152h.744l-5.064 8.496h-2.112l-5.208-8.496h.912V27h-4.392Zm24.602.216c-.768 0-1.416-.256-1.944-.768s-.792-1.16-.792-1.944c0-.816.264-1.464.792-1.944.528-.496 1.176-.744 1.944-.744s1.416.248 1.944.744c.528.48.792 1.128.792 1.944 0 .784-.264 1.432-.792 1.944s-1.176.768-1.944.768Zm12.705.12c-2.48 0-4.416-.68-5.808-2.04-1.392-1.36-2.088-3.288-2.088-5.784V10.2h4.752v9.168c0 1.44.28 2.472.84 3.096.576.624 1.36.936 2.352.936.992 0 1.768-.312 2.328-.936.56-.624.84-1.656.84-3.096V10.2h4.68v9.312c0 2.496-.696 4.424-2.088 5.784-1.392 1.36-3.328 2.04-5.808 2.04Zm8.747-.336 7.416-16.8h4.68l7.44 16.8h-4.944l-5.808-14.472h1.872L312.09 27h-4.848Zm4.056-3.264 1.224-3.504h8.208l1.224 3.504h-10.656Z" fill="#315E93"/></svg>